<?xml version="1.0" standalone="no"?>
<!DOCTYPE svg PUBLIC "-//W3C//DTD SVG 20010904//EN"
 "http://www.w3.org/TR/2001/REC-SVG-20010904/DTD/svg10.dtd">
<svg version="1.0" xmlns="http://www.w3.org/2000/svg"
 width="700.000000pt" height="700.000000pt" viewBox="0 0 700.000000 700.000000"
 preserveAspectRatio="xMidYMid meet">
<metadata>
Created by potrace 1.11, written by Peter Selinger 2001-2013
</metadata>
<g transform="translate(0.000000,700.000000) scale(0.100000,-0.100000)"
fill="#000000" stroke="none">
<path d="M4631 6853 c-48 -57 -54 -67 -117 -193 -214 -428 -317 -707 -454
-1230 -54 -206 -129 -497 -135 -520 -1 -8 -12 -51 -24 -95 -11 -44 -22 -93
-25 -110 -3 -16 -24 -118 -46 -225 -42 -199 -93 -469 -105 -550 -3 -25 -8 -52
-10 -60 -2 -8 -7 -39 -10 -69 -4 -30 -8 -61 -10 -70 -1 -9 -6 -45 -10 -81 -3
-36 -8 -76 -10 -90 -2 -14 -7 -52 -10 -85 -4 -33 -8 -73 -10 -90 -3 -16 -7
-59 -11 -95 -3 -36 -8 -76 -10 -90 -21 -173 -21 -890 0 -1095 2 -16 7 -64 10
-105 4 -41 9 -86 11 -100 2 -14 6 -52 10 -85 13 -120 15 -141 20 -177 3 -21 7
-57 10 -80 48 -376 169 -835 327 -1238 59 -151 78 -190 99 -203 18 -11 146 44
155 67 5 14 -28 118 -160 501 -59 172 -116 386 -141 530 -39 222 -56 322 -61
355 -2 19 -7 44 -9 55 -2 11 -7 49 -11 85 -3 36 -8 67 -9 70 -2 3 -6 42 -10
85 -3 44 -8 96 -10 115 -30 234 -37 379 -36 795 0 314 1 368 15 480 3 22 7 69
11 105 3 36 7 81 10 100 2 19 7 56 10 83 10 95 17 144 30 232 8 50 16 106 19
125 15 108 19 136 22 150 2 8 19 96 38 195 44 226 70 346 108 505 16 69 31
132 33 140 2 8 29 116 60 240 123 492 199 737 345 1120 106 276 145 387 170
474 30 111 31 125 9 147 -27 27 -43 24 -78 -18z"/>
<path d="M4254 4983 c-18 -41 -23 -180 -11 -282 8 -67 96 -357 148 -489 37
-93 105 -223 210 -397 91 -151 117 -183 156 -194 52 -15 59 -8 287 265 226
273 574 609 601 582 3 -3 -12 -74 -34 -159 -43 -164 -74 -327 -91 -474 -5 -49
-12 -108 -15 -130 -24 -206 -24 -742 0 -955 3 -25 7 -62 10 -82 2 -21 9 -65
15 -98 6 -34 13 -76 15 -93 2 -18 7 -50 10 -72 4 -22 8 -51 10 -65 41 -301
155 -762 245 -990 122 -309 230 -507 387 -708 49 -63 70 -82 89 -82 33 0 103
48 110 75 7 29 -14 79 -65 154 -23 33 -41 62 -41 66 0 3 -15 27 -33 53 -105
149 -210 366 -285 587 -38 112 -57 181 -117 425 -33 136 -78 359 -90 450 -2
14 -6 39 -9 56 -3 17 -8 46 -10 65 -3 19 -7 48 -10 64 -41 255 -50 375 -50
650 0 190 9 408 19 460 2 11 7 40 9 65 3 25 8 67 11 95 5 41 48 281 70 390 17
85 68 300 85 361 20 70 26 140 12 160 -7 12 -75 44 -90 43 -52 -4 -253 -128
-367 -226 -188 -161 -499 -491 -584 -619 l-48 -71 -74 131 c-125 223 -155 296
-232 566 -32 112 -47 183 -52 255 -9 128 -19 185 -36 196 -8 5 -42 9 -77 9
l-63 0 -15 -37z"/>
<path d="M1370 4965 c-16 -19 -6 -83 19 -128 10 -18 49 -86 88 -152 99 -170
218 -423 239 -505 2 -8 13 -42 24 -75 53 -154 108 -427 135 -670 7 -65 36
-292 41 -330 18 -127 21 -122 -71 -111 -114 14 -129 16 -270 41 -22 4 -221 45
-245 50 -8 2 -83 19 -166 39 -196 45 -283 75 -414 141 -59 30 -110 55 -113 55
-9 0 -37 -61 -37 -81 0 -34 220 -159 368 -208 81 -28 503 -131 632 -155 14 -3
34 -7 45 -9 11 -3 67 -12 125 -22 58 -9 119 -23 137 -30 29 -12 32 -18 39 -72
16 -121 8 -1154 -10 -1240 -3 -12 -8 -57 -12 -100 -3 -43 -8 -91 -9 -108 -2
-16 -6 -73 -10 -125 -4 -52 -8 -102 -10 -110 -2 -8 -7 -58 -10 -110 -4 -52 -9
-98 -11 -101 -2 -4 -7 -57 -10 -118 -8 -138 -5 -144 75 -135 99 11 116 24 126
94 3 25 8 52 10 60 3 8 7 47 10 85 3 39 8 92 11 119 3 27 7 74 10 105 5 86 14
180 30 325 21 199 28 400 28 866 1 250 -2 478 -6 506 l-8 52 133 -6 c188 -8
813 -8 932 1 183 12 235 42 235 132 0 71 -90 85 -306 46 -52 -10 -941 -15
-976 -6 -28 7 -29 12 -43 200 -3 39 -10 95 -15 125 -10 59 -16 103 -25 190
-18 168 -86 497 -131 640 -39 125 -39 125 -113 283 -28 59 -63 136 -78 170
-15 34 -76 135 -135 223 l-106 162 -62 1 c-34 0 -65 3 -69 6 -5 2 -14 -2 -21
-10z"/>
<path d="M4362 2549 c-76 -37 -177 -129 -192 -175 -23 -70 1 -245 50 -358 10
-25 49 -91 85 -146 l67 -100 -40 -97 c-46 -111 -107 -313 -118 -388 -44 -299
85 -526 300 -528 107 -1 156 14 280 86 85 49 167 138 289 312 14 19 17 18 87
-29 92 -62 156 -87 189 -75 23 9 50 36 51 51 0 11 -41 48 -134 121 -48 37 -89
74 -92 82 -4 8 10 36 29 62 19 27 42 62 50 79 15 29 15 33 -1 46 -50 41 -45
43 -112 -41 l-64 -79 -39 32 c-22 17 -74 63 -117 101 -42 39 -131 114 -197
168 -66 53 -126 104 -133 112 -9 11 -4 31 30 102 84 175 123 309 119 408 -3
78 -37 170 -79 214 -67 69 -208 88 -308 40z m170 -121 c37 -30 47 -62 44 -138
-6 -127 -78 -340 -116 -340 -27 0 -98 79 -130 146 -38 78 -46 117 -41 202 1
29 72 99 124 123 49 22 96 24 119 7z m53 -844 c43 -39 126 -104 320 -250 23
-18 52 -44 63 -59 20 -25 20 -29 7 -62 -25 -59 -95 -155 -154 -211 -113 -107
-277 -159 -361 -115 -67 35 -107 167 -95 313 14 172 78 380 127 414 32 23 37
21 93 -30z"/>
</g>
</svg>
